<svg version="1.1" xmlns="http://www.w3.org/2000/svg" viewBox="-3049.6718387134106 -1799.5520965576172 8262.85621371341 3063.5521911621095"><desc>Created with Snap</desc><defs></defs><g><g transform="matrix(27.5821,0,0,27.5821,-2880.3893,-1646.8954)"><g><path d="M93.926,7.859c-0.097-0.163-0.214-0.312-0.349-0.445l-0.398-0.4c-0.132-0.129-0.278-0.242-0.434-0.337   c-4.462-2.678-12.771-0.174-18.521,5.58l-8.416,8.414l-38.194-2.546c-0.062-0.003-0.123-0.006-0.185-0.006   c-3.17,0.044-5.575,1.787-6.126,4.446c-0.542,2.612,0.829,6.561,6.472,9.113l18.231,9.116c-2.979,3.5-8.587,10.266-11.385,14.817   l-10.62,1.181c-1.269,0.141-2.183,1.284-2.042,2.555l0.653,5.886c0.117,1.047,0.926,1.884,1.972,2.033l7.661,1.094l1.096,7.663   c0.149,1.043,0.984,1.854,2.033,1.972l5.886,0.653c0.606,0.065,1.219-0.11,1.699-0.492c0.48-0.384,0.785-0.94,0.855-1.552   l1.178-10.621c4.553-2.797,11.317-8.402,14.818-11.382l9.116,18.231c2.218,4.902,5.49,6.58,8.024,6.58   c0.381,0,0.747-0.038,1.087-0.108c2.66-0.551,4.403-2.956,4.444-6.126c0-0.062,0-0.123-0.003-0.185l-2.549-38.198l8.414-8.414   C94.099,20.629,96.604,12.321,93.926,7.859z M75.92,32.266c-0.472,0.472-0.718,1.125-0.674,1.79l2.61,39.141   c-0.023,0.706-0.231,1.468-0.756,1.576c-0.785,0.159-2.566-0.744-3.979-3.884c-0.012-0.029-0.026-0.057-0.041-0.086l-10.464-20.93   c-0.319-0.642-0.92-1.099-1.623-1.236c-0.146-0.029-0.296-0.043-0.445-0.043c-0.557,0-1.099,0.201-1.523,0.576   c-0.117,0.101-11.725,10.272-17.326,13.383c-0.653,0.363-1.093,1.022-1.175,1.767l-1.052,9.475l-1.808-0.202L36.61,66.21   c-0.085-0.577-0.372-1.075-0.782-1.427c-0.354-0.415-0.853-0.706-1.433-0.788L27.01,62.94l-0.199-1.808l9.475-1.055   c0.744-0.082,1.403-0.519,1.767-1.175c3.111-5.602,13.28-17.208,13.383-17.324c0.472-0.539,0.668-1.267,0.53-1.972   c-0.138-0.703-0.592-1.302-1.233-1.623L29.802,27.52c-0.029-0.015-0.059-0.026-0.088-0.041c-3.138-1.409-4.049-3.188-3.885-3.976   c0.108-0.524,0.873-0.734,1.579-0.757l39.141,2.609c0.665,0.041,1.315-0.199,1.79-0.672l9.154-9.157   c4.614-4.614,10.351-5.996,12.604-5.019c0.973,2.256-0.407,7.989-5.021,12.604L75.92,32.266z" fill="#143d59" style=""></path><path d="M26.061,46.546c0.902-0.902,0.902-2.367,0-3.269c-0.902-0.904-2.367-0.904-3.27,0L5.679,60.389   c-0.905,0.903-0.905,2.367,0,3.271c0.451,0.451,1.043,0.679,1.635,0.679s1.184-0.228,1.635-0.679L26.061,46.546z" fill="#143d59" style=""></path><path d="M53.312,75.652L38.515,90.45c-0.905,0.903-0.905,2.366,0,3.269c0.451,0.453,1.043,0.679,1.635,0.679   s1.184-0.226,1.635-0.679l14.798-14.797c0.905-0.902,0.905-2.367,0-3.27C55.68,74.747,54.215,74.747,53.312,75.652z" fill="#143d59" style="" ></path><path d="M24.64,72.876L9.379,88.139c-0.905,0.902-0.905,2.367,0,3.27c0.451,0.451,1.043,0.676,1.635,0.676s1.184-0.225,1.635-0.676   l15.261-15.261c0.902-0.904,0.902-2.367,0-3.271C27.007,71.973,25.542,71.973,24.64,72.876z" fill="#143d59" style=""></path></g><desc>Created with Snap</desc><defs></defs></g><g><g transform="matrix(1.024,0,0,-1.024,0,0)"><path d="M129 59L129 681L47 693L47 743L556 743L570 588L513 588L484 685L236 691L236 409L403 412L417 495L472 495L472 265L417 265L403 351L236 354L236 56L518 66L571 192L630 174L601 0L46 0L46 49L129 59ZM695 0L695 49L756 58L756 478L684 496L684 550L827 568L845 555L851 515L850 483Q885 515 945 541Q1006 568 1054 568Q1108 568 1141 550Q1174 532 1191 494Q1223 521 1280 544Q1338 568 1388 568Q1450 568 1485 544Q1520 521 1534 471Q1549 422 1549 339L1549 58L1621 49L1621 0L1383 0L1383 49L1445 58L1445 336Q1445 394 1436 428Q1428 463 1404 480Q1381 497 1337 497Q1304 497 1267 482Q1230 468 1204 448Q1213 409 1213 337L1213 58L1284 49L1284 0L1042 0L1042 49L1108 58L1108 338Q1108 398 1100 431Q1093 464 1072 480Q1051 497 1008 497Q972 497 931 479Q891 461 861 437L861 58L928 49L928 0L695 0ZM1809 655Q1777 655 1761 673Q1745 691 1745 719Q1745 751 1764 772Q1784 793 1818 793Q1852 793 1868 775Q1884 757 1884 729Q1884 695 1864 675Q1845 655 1810 655L1809 655ZM1769 58L1769 478L1693 496L1693 549L1848 568L1850 568L1873 550L1873 57L1953 49L1953 0L1688 0L1688 49L1769 58ZM2263 -270Q2135 -270 2077 -230Q2020 -189 2020 -118Q2020 -74 2047 -37Q2075 0 2113 19Q2067 45 2067 103Q2067 139 2088 171Q2109 203 2143 220Q2093 242 2066 283Q2040 324 2040 380Q2040 438 2072 481Q2105 524 2158 547Q2212 570 2272 570Q2373 570 2430 528Q2445 543 2476 557Q2507 571 2542 571L2576 571L2576 483L2466 483Q2490 446 2490 397Q2490 338 2460 292Q2431 247 2378 222Q2326 197 2260 197Q2217 197 2183 206Q2169 192 2160 175Q2151 158 2151 142Q2151 106 2175 92Q2199 79 2261 79L2374 79Q2471 79 2518 42Q2565 5 2565 -63Q2565 -120 2524 -168Q2483 -215 2413 -243Q2344 -270 2263 -270ZM2270 252Q2384 252 2384 387Q2384 454 2354 485Q2325 517 2266 517Q2211 517 2179 486Q2147 456 2147 389Q2147 326 2177 289Q2208 252 2270 252ZM2272 -212Q2321 -212 2364 -198Q2408 -183 2435 -155Q2462 -126 2462 -88Q2462 -43 2438 -23Q2414 -2 2345 -2L2227 -2Q2187 -2 2164 3Q2123 -42 2123 -98Q2123 -154 2157 -183Q2191 -212 2272 -212ZM2633 0L2633 49L2708 55L2708 478L2636 496L2636 550L2774 568L2776 568L2798 550L2798 532L2795 454L2798 454Q2808 471 2834 498Q2860 525 2901 547Q2942 570 2990 570Q3010 570 3023 565L3023 453Q3016 458 3000 462Q2985 467 2966 467Q2883 467 2812 416L2812 56L2939 48L2939 0L2633 0ZM3093 59L3334 749L3444 749L3687 59L3749 49L3749 0L3485 0L3485 49L3568 59L3521 207L3229 207L3182 59L3268 49L3268 0L3031 0L3031 49L3093 59ZM3502 266L3397 589L3372 677L3348 587L3247 266L3502 266ZM3783 0L3783 49L3858 55L3858 478L3786 496L3786 550L3924 568L3926 568L3948 550L3948 532L3945 454L3948 454Q3958 471 3984 498Q4010 525 4051 547Q4092 570 4140 570Q4160 570 4173 565L4173 453Q4166 458 4150 462Q4135 467 4116 467Q4033 467 3962 416L3962 56L4089 48L4089 0L3783 0ZM4478 -270Q4350 -270 4292 -230Q4235 -189 4235 -118Q4235 -74 4262 -37Q4290 0 4328 19Q4282 45 4282 103Q4282 139 4303 171Q4324 203 4358 220Q4308 242 4281 283Q4255 324 4255 380Q4255 438 4287 481Q4320 524 4373 547Q4427 570 4487 570Q4588 570 4645 528Q4660 543 4691 557Q4722 571 4757 571L4791 571L4791 483L4681 483Q4705 446 4705 397Q4705 338 4675 292Q4646 247 4593 222Q4541 197 4475 197Q4432 197 4398 206Q4384 192 4375 175Q4366 158 4366 142Q4366 106 4390 92Q4414 79 4476 79L4589 79Q4686 79 4733 42Q4780 5 4780 -63Q4780 -120 4739 -168Q4698 -215 4628 -243Q4559 -270 4478 -270ZM4485 252Q4599 252 4599 387Q4599 454 4569 485Q4540 517 4481 517Q4426 517 4394 486Q4362 456 4362 389Q4362 326 4392 289Q4423 252 4485 252ZM4487 -212Q4536 -212 4579 -198Q4623 -183 4650 -155Q4677 -126 4677 -88Q4677 -43 4653 -23Q4629 -2 4560 -2L4442 -2Q4402 -2 4379 3Q4338 -42 4338 -98Q4338 -154 4372 -183Q4406 -212 4487 -212Z" fill="#143d59" style="" ></path></g></g></g></svg>